<svg width="23px" height="23px" viewBox="0 0 23 23" version="1.1" xmlns="http://www.w3.org/2000/svg" xmlns:xlink="http://www.w3.org/1999/xlink">
    <defs>
        <rect id="path-1" x="0" y="0" width="23" height="23"></rect>
    </defs>
    <g id="Symbols" stroke="none" stroke-width="1" fill="none" fill-rule="evenodd">
        <g id="Icon/close">
            <g id="tick">
                <mask id="mask-2" fill="white">
                    <use xlink:href="#path-1"></use>
                </mask>
                <g id="Bounds"></g>
            </g>
            <path d="M11.1696275,10.285744 L7.28244992,6.39856644 C6.98515395,6.10127047 6.51277321,6.10376346 6.21987999,6.39665668 C5.92494477,6.6915919 5.9278418,7.16527866 6.22178974,7.45922661 L10.1089673,11.3464041 L6.39856644,15.056805 C6.10127047,15.354101 6.10376346,15.8264817 6.39665668,16.1193749 C6.6915919,16.4143101 7.16527866,16.4114131 7.45922661,16.1174652 L11.1696275,12.4070643 L15.056805,16.2942419 C15.354101,16.5915378 15.8264817,16.5890448 16.1193749,16.2961516 C16.4143101,16.0012164 16.4114131,15.5275296 16.1174652,15.2335817 L12.2302876,11.3464041 L16.2942419,7.28244992 C16.5915378,6.98515395 16.5890448,6.51277321 16.2961516,6.21987999 C16.0012164,5.92494477 15.5275296,5.9278418 15.2335817,6.22178974 L11.1696275,10.285744 Z" id="Close" fill="#DE4C4A"></path>
        </g>
    </g>
</svg>
